<?xml version="1.0" standalone="no"?>
<!DOCTYPE svg PUBLIC "-//W3C//DTD SVG 20010904//EN"
 "http://www.w3.org/TR/2001/REC-SVG-20010904/DTD/svg10.dtd">
<svg version="1.0" xmlns="http://www.w3.org/2000/svg"
 width="520.000000pt" height="164.000000pt" viewBox="0 0 520.000000 164.000000"
 preserveAspectRatio="xMidYMid meet">

<g transform="translate(0.000000,164.000000) scale(0.100000,-0.100000)"
fill="#000000" stroke="none">
<path d="M1455 1619 c-160 -27 -285 -118 -337 -247 -22 -56 -23 -67 -26 -472
-4 -545 6 -623 97 -722 82 -90 211 -137 373 -138 137 0 240 33 335 108 101 81
130 163 140 400 l6 152 -216 0 -217 0 0 -166 c0 -95 -4 -174 -10 -185 -6 -10
-21 -19 -34 -19 -51 0 -51 -2 -51 506 0 436 1 475 17 491 14 13 23 15 45 7
l28 -9 3 -208 2 -207 215 0 215 0 0 133 c-1 146 -12 254 -36 336 -19 67 -102
154 -185 195 -96 46 -246 65 -364 45z"/>
<path d="M4570 1619 c-132 -19 -249 -89 -289 -173 -34 -74 -43 -138 -39 -274
7 -217 47 -278 285 -439 67 -46 123 -83 126 -83 13 0 77 -69 86 -93 6 -16 11
-63 11 -105 0 -86 -16 -122 -54 -122 -42 0 -46 16 -46 167 l0 143 -201 0 -202
0 6 -153 c6 -185 23 -247 89 -314 173 -180 585 -175 743 9 54 63 69 128 69
288 1 210 -33 311 -134 397 -41 35 -163 117 -235 157 -59 34 -111 81 -131 118
-21 40 -18 150 4 178 25 31 58 20 66 -22 3 -17 6 -66 6 -109 l0 -79 201 0 201
0 -7 113 c-8 138 -19 190 -50 243 -68 117 -293 185 -505 153z"/>
<path d="M60 836 l0 -766 210 0 210 0 0 615 0 615 24 0 c57 0 56 9 56 -637 l0
-593 201 0 200 0 -3 318 c-3 302 -4 319 -25 357 -45 84 -85 104 -211 107 l-87
1 103 7 c112 7 138 18 178 78 60 87 57 370 -4 488 -24 46 -84 105 -129 128
-50 25 -147 34 -445 42 l-278 7 0 -767z"/>
<path d="M3214 1586 c-3 -8 -4 -289 -2 -623 4 -549 6 -613 22 -658 54 -155
199 -248 407 -262 214 -14 368 57 449 209 32 59 34 69 42 212 4 83 7 372 6
641 l-3 490 -212 3 -213 2 0 -615 c0 -406 -4 -623 -10 -636 -9 -15 -43 -27
-52 -16 -2 1 -5 286 -8 632 l-5 630 -208 3 c-175 2 -208 0 -213 -12z"/>
<path d="M2160 831 l0 -761 298 0 c164 0 336 5 382 10 196 24 246 96 257 365
10 241 -21 353 -111 409 -41 25 -61 31 -144 36 l-97 7 90 2 c192 3 245 75 232
311 -9 158 -47 246 -134 310 -82 60 -108 64 -455 68 l-318 3 0 -760z m494 447
c14 -19 16 -78 16 -438 0 -228 -3 -425 -6 -437 -5 -19 -48 -43 -75 -43 -5 0
-9 211 -9 470 l0 470 29 0 c20 0 35 -8 45 -22z"/>
</g>
</svg>
